<svg width="63" height="74" viewBox="0 0 63 74" fill="none" xmlns="http://www.w3.org/2000/svg">
<g filter="url(#filter0_f)">
<g clip-path="url(#clip0)">
<path d="M31.5023 20.8423C25.3116 20.8423 20.2921 25.8519 20.2921 32.0317C20.2921 35.1932 23.3786 40.8572 23.3786 40.8572L31.0891 54.0002L39.1341 41.0106C39.1341 41.0106 42.7078 35.6065 42.7078 32.0317C42.7088 25.8519 37.6902 20.8423 31.5023 20.8423ZM31.4498 38.1947C27.9043 38.1947 25.0324 35.309 25.0324 31.7427C25.0324 28.1811 27.9033 25.2974 31.4498 25.2974C34.9936 25.2974 37.8683 28.1811 37.8683 31.7427C37.8683 35.309 34.9936 38.1947 31.4498 38.1947Z" fill="#2CE6D7"/>
</g>
</g>
<g clip-path="url(#clip1)">
<path d="M31.5023 18C25.3116 18 20.2921 23.0096 20.2921 29.1895C20.2921 32.3509 23.3786 38.0149 23.3786 38.0149L31.0891 51.1579L39.1341 38.1683C39.1341 38.1683 42.7078 32.7642 42.7078 29.1895C42.7088 23.0096 37.6902 18 31.5023 18ZM31.4498 35.3524C27.9043 35.3524 25.0324 32.4667 25.0324 28.9004C25.0324 25.3388 27.9033 22.4551 31.4498 22.4551C34.9936 22.4551 37.8683 25.3388 37.8683 28.9004C37.8683 32.4667 34.9936 35.3524 31.4498 35.3524Z" fill="#23B3A8"/>
</g>
<g clip-path="url(#clip2)">
<path d="M31.5023 18.9473C25.3116 18.9473 20.2921 23.9569 20.2921 30.1367C20.2921 33.2982 23.3786 38.9621 23.3786 38.9621L31.0891 52.1052L39.1341 39.1156C39.1341 39.1156 42.7078 33.7115 42.7078 30.1367C42.7088 23.9569 37.6902 18.9473 31.5023 18.9473ZM31.4498 36.2996C27.9043 36.2996 25.0324 33.414 25.0324 29.8477C25.0324 26.2861 27.9033 23.4023 31.4498 23.4023C34.9936 23.4023 37.8683 26.2861 37.8683 29.8477C37.8683 33.414 34.9936 36.2996 31.4498 36.2996Z" fill="#33EADB"/>
</g>
<defs>
<filter id="filter0_f" x="-5" y="0.842285" width="73" height="73.1579" filterUnits="userSpaceOnUse" color-interpolation-filters="sRGB">
<feFlood flood-opacity="0" result="BackgroundImageFix"/>
<feBlend mode="normal" in="SourceGraphic" in2="BackgroundImageFix" result="shape"/>
<feGaussianBlur stdDeviation="10" result="effect1_foregroundBlur"/>
</filter>
<clipPath id="clip0">
<rect x="15" y="20.8423" width="33" height="33.1579" fill="white"/>
</clipPath>
<clipPath id="clip1">
<rect x="15" y="18" width="33" height="33.1579" fill="white"/>
</clipPath>
<clipPath id="clip2">
<rect x="15" y="18.9473" width="33" height="33.1579" fill="white"/>
</clipPath>
</defs>
</svg>
