<svg width="14" height="11" viewBox="0 0 14 11" fill="none" xmlns="http://www.w3.org/2000/svg"><path d="M7.87171 10.4554L13.7197 2.93871C13.8551 2.76486 13.9308 2.53191 13.9329 2.28286C13.935 2.03381 13.8632 1.79963 13.7307 1.62355L13.3095 1.06288C13.035 0.698052 12.5839 0.694285 12.3037 1.05448L7.39292 7.36639L2.58286 0.966258C2.45042 0.790172 2.27272 0.692076 2.08238 0.690486C1.89183 0.688895 1.71251 0.78401 1.57704 0.957859L1.14658 1.51141C1.01121 1.6854 0.935494 1.91821 0.933415 2.16726C0.931335 2.4163 1.00315 2.65049 1.1356 2.82657L6.86251 10.4469C6.99537 10.6234 7.17392 10.7213 7.36458 10.7223C7.55597 10.7244 7.73602 10.6296 7.87171 10.4554Z" fill="white"/></svg>
