<svg width="82" height="72" viewBox="0 0 82 72" fill="none" xmlns="http://www.w3.org/2000/svg">
<g filter="url(#filter0_f)">
<path d="M20.8768 22.8058C26.6411 27.6875 36.7557 36.276 39.7285 38.9539C40.1276 39.3154 40.5556 39.4991 41 39.4991C41.4435 39.4991 41.8708 39.3171 42.2689 38.9574C45.2443 36.2769 55.3589 27.6875 61.1233 22.8058C61.4822 22.5024 61.5369 21.9692 61.2464 21.5983C60.5747 20.7414 59.5733 20.25 58.5 20.25H23.5C22.4268 20.25 21.4253 20.7414 20.7537 21.5984C20.4631 21.9692 20.5179 22.5024 20.8768 22.8058Z" fill="#33EADB"/>
<path d="M61.4925 25.4512C61.1823 25.3068 60.8174 25.3572 60.5594 25.5777C54.1668 30.9968 46.0082 37.9431 43.4412 40.2561C42.0005 41.5566 40.001 41.5566 38.5569 40.2544C35.8209 37.7892 26.659 30.0005 21.4406 25.5776C21.1808 25.3571 20.8151 25.3085 20.5075 25.4511C20.1983 25.5948 20 25.9041 20 26.245V48.2499C20 50.1803 21.5697 51.7499 23.5 51.7499H58.5001C60.4303 51.7499 62 50.1803 62 48.2499V26.245C62 25.9041 61.8017 25.5939 61.4925 25.4512Z" fill="#33EADB"/>
</g>
<path d="M20.8768 22.8058C26.6411 27.6875 36.7557 36.276 39.7285 38.9539C40.1276 39.3154 40.5556 39.4991 41 39.4991C41.4435 39.4991 41.8708 39.3171 42.2689 38.9574C45.2443 36.2769 55.3589 27.6875 61.1233 22.8058C61.4822 22.5024 61.5369 21.9692 61.2464 21.5983C60.5747 20.7414 59.5733 20.25 58.5 20.25H23.5C22.4268 20.25 21.4253 20.7414 20.7537 21.5984C20.4631 21.9692 20.5179 22.5024 20.8768 22.8058Z" fill="#23B3A8"/>
<path d="M61.4925 25.4512C61.1823 25.3068 60.8174 25.3572 60.5594 25.5777C54.1668 30.9968 46.0082 37.9431 43.4412 40.2561C42.0005 41.5566 40.001 41.5566 38.5569 40.2544C35.8209 37.7892 26.659 30.0005 21.4406 25.5776C21.1808 25.3571 20.8151 25.3085 20.5075 25.4511C20.1983 25.5948 20 25.9041 20 26.245V48.2499C20 50.1803 21.5697 51.7499 23.5 51.7499H58.5001C60.4303 51.7499 62 50.1803 62 48.2499V26.245C62 25.9041 61.8017 25.5939 61.4925 25.4512Z" fill="#23B3A8"/>
<path d="M21.8768 24.8058C27.6411 29.6875 37.7557 38.276 40.7285 40.9539C41.1276 41.3154 41.5556 41.4991 42 41.4991C42.4435 41.4991 42.8708 41.3171 43.2689 40.9574C46.2443 38.2769 56.3589 29.6875 62.1233 24.8058C62.4822 24.5024 62.5369 23.9692 62.2464 23.5983C61.5747 22.7414 60.5733 22.25 59.5 22.25H24.5C23.4268 22.25 22.4253 22.7414 21.7537 23.5984C21.4631 23.9692 21.5179 24.5024 21.8768 24.8058Z" fill="#33EADB"/>
<path d="M62.4925 27.4512C62.1823 27.3068 61.8174 27.3572 61.5594 27.5777C55.1668 32.9968 47.0082 39.9431 44.4412 42.2561C43.0005 43.5566 41.001 43.5566 39.5569 42.2544C36.8209 39.7892 27.659 32.0005 22.4406 27.5776C22.1808 27.3571 21.8151 27.3085 21.5075 27.4511C21.1983 27.5948 21 27.9041 21 28.245V50.2499C21 52.1803 22.5697 53.7499 24.5 53.7499H59.5001C61.4303 53.7499 63 52.1803 63 50.2499V28.245C63 27.9041 62.8017 27.5939 62.4925 27.4512Z" fill="#33EADB"/>
<defs>
<filter id="filter0_f" x="0" y="-5" width="82" height="82" filterUnits="userSpaceOnUse" color-interpolation-filters="sRGB">
<feFlood flood-opacity="0" result="BackgroundImageFix"/>
<feBlend mode="normal" in="SourceGraphic" in2="BackgroundImageFix" result="shape"/>
<feGaussianBlur stdDeviation="10" result="effect1_foregroundBlur"/>
</filter>
</defs>
</svg>
