<svg width="73" height="73" viewBox="0 0 73 73" fill="none" xmlns="http://www.w3.org/2000/svg">
<g filter="url(#filter0_f)">
<g clip-path="url(#clip0)">
<path d="M50.3521 41.6607C48.3317 41.6607 46.3479 41.3447 44.468 40.7235C43.5469 40.4093 42.4145 40.6975 41.8523 41.2749L38.1418 44.076C33.8386 41.779 31.1879 39.1292 28.9223 34.8583L31.6409 31.2445C32.3472 30.5391 32.6006 29.5087 32.2971 28.5419C31.6731 26.6522 31.3562 24.6693 31.3562 22.6481C31.3563 21.1879 30.1684 20 28.7083 20H22.648C21.1879 20 20 21.1879 20 22.648C20 39.3843 33.6158 53 50.3521 53C51.8122 53 53.0001 51.8121 53.0001 50.352V44.3086C53 42.8486 51.8121 41.6607 50.3521 41.6607Z" fill="#2CE6D7"/>
</g>
</g>
<g clip-path="url(#clip1)">
<path d="M50.3521 41.6607C48.3317 41.6607 46.3479 41.3447 44.468 40.7235C43.5469 40.4093 42.4145 40.6975 41.8523 41.2749L38.1418 44.076C33.8386 41.779 31.1879 39.1292 28.9223 34.8583L31.6409 31.2445C32.3472 30.5391 32.6006 29.5087 32.2971 28.5419C31.6731 26.6522 31.3562 24.6693 31.3562 22.6481C31.3563 21.1879 30.1684 20 28.7083 20H22.648C21.1879 20 20 21.1879 20 22.648C20 39.3843 33.6158 53 50.3521 53C51.8122 53 53.0001 51.8121 53.0001 50.352V44.3086C53 42.8486 51.8121 41.6607 50.3521 41.6607Z" fill="#23B3A8"/>
</g>
<g clip-path="url(#clip2)">
<path d="M52.3521 42.6607C50.3317 42.6607 48.3479 42.3447 46.468 41.7235C45.5469 41.4093 44.4145 41.6975 43.8523 42.2749L40.1418 45.076C35.8386 42.779 33.1879 40.1292 30.9223 35.8583L33.6409 32.2445C34.3472 31.5391 34.6006 30.5087 34.2971 29.5419C33.6731 27.6522 33.3562 25.6693 33.3562 23.6481C33.3563 22.1879 32.1684 21 30.7083 21H24.648C23.1879 21 22 22.1879 22 23.648C22 40.3843 35.6158 54 52.3521 54C53.8122 54 55.0001 52.8121 55.0001 51.352V45.3086C55 43.8486 53.8121 42.6607 52.3521 42.6607Z" fill="#2CE6D7"/>
</g>
<defs>
<filter id="filter0_f" x="0" y="0" width="73" height="73" filterUnits="userSpaceOnUse" color-interpolation-filters="sRGB">
<feFlood flood-opacity="0" result="BackgroundImageFix"/>
<feBlend mode="normal" in="SourceGraphic" in2="BackgroundImageFix" result="shape"/>
<feGaussianBlur stdDeviation="10" result="effect1_foregroundBlur"/>
</filter>
<clipPath id="clip0">
<rect x="20" y="20" width="33" height="33" fill="white"/>
</clipPath>
<clipPath id="clip1">
<rect x="20" y="20" width="33" height="33" fill="white"/>
</clipPath>
<clipPath id="clip2">
<rect x="22" y="21" width="33" height="33" fill="white"/>
</clipPath>
</defs>
</svg>
