<svg width="118" height="92" viewBox="0 0 118 92" fill="none" xmlns="http://www.w3.org/2000/svg">
<g filter="url(#filter0_f)">
<path d="M40.5672 20.9751C28.6959 22.1338 20 32.8064 20 44.734V55.1406C20 61.4507 25.1154 66.5664 31.4258 66.5664H65.7031V43.7149C65.7031 30.3615 54.1881 19.6455 40.5672 20.9751ZM42.8516 57.4258C35.2909 57.4258 29.1406 51.2755 29.1406 43.7149C29.1406 36.1542 35.2909 30.0039 42.8516 30.0039C50.4122 30.0039 56.5625 36.1542 56.5625 43.7149C56.5625 51.2755 50.4122 57.4258 42.8516 57.4258Z" fill="#33EADB" fill-opacity="0.8"/>
<path d="M42.8516 34.5742C37.8104 34.5742 33.7109 38.6736 33.7109 43.7148C33.7109 48.7561 37.8104 52.8555 42.8516 52.8555C47.8928 52.8555 51.9922 48.7561 51.9922 43.7148C51.9922 38.6736 47.8928 34.5742 42.8516 34.5742Z" fill="#33EADB" fill-opacity="0.8"/>
<path d="M95.7148 52.8555H70.2734V66.5664H74.8438V64.2812C74.8438 63.0182 75.8658 61.9961 77.1289 61.9961C78.392 61.9961 79.4141 63.0182 79.4141 64.2812V66.5664H84.1367V64.2812C84.1367 63.0182 85.1588 61.9961 86.4219 61.9961C87.685 61.9961 88.707 63.0182 88.707 64.2812V66.5664H93.4297V68.8516C93.4297 70.1146 94.4518 71.1367 95.7148 71.1367C96.9779 71.1367 98 70.1146 98 68.8516C98 67.3275 98 55.73 98 55.1406C98 53.8775 96.9779 52.8555 95.7148 52.8555Z" fill="#33EADB" fill-opacity="0.8"/>
</g>
<path d="M40.5672 18.9751C28.6959 20.1338 20 30.8064 20 42.734V53.1406C20 59.4507 25.1154 64.5664 31.4258 64.5664H65.7031V41.7149C65.7031 28.3615 54.1881 17.6455 40.5672 18.9751ZM42.8516 55.4258C35.2909 55.4258 29.1406 49.2755 29.1406 41.7149C29.1406 34.1542 35.2909 28.0039 42.8516 28.0039C50.4122 28.0039 56.5625 34.1542 56.5625 41.7149C56.5625 49.2755 50.4122 55.4258 42.8516 55.4258Z" fill="#23B3A8"/>
<path d="M42.8516 32.5742C37.8104 32.5742 33.7109 36.6736 33.7109 41.7148C33.7109 46.7561 37.8104 50.8555 42.8516 50.8555C47.8928 50.8555 51.9922 46.7561 51.9922 41.7148C51.9922 36.6736 47.8928 32.5742 42.8516 32.5742Z" fill="#23B3A8"/>
<path d="M95.7148 50.8555H70.2734V64.5664H74.8438V62.2812C74.8438 61.0182 75.8658 59.9961 77.1289 59.9961C78.392 59.9961 79.4141 61.0182 79.4141 62.2812V64.5664H84.1367V62.2812C84.1367 61.0182 85.1588 59.9961 86.4219 59.9961C87.685 59.9961 88.707 61.0182 88.707 62.2812V64.5664H93.4297V66.8516C93.4297 68.1146 94.4518 69.1367 95.7148 69.1367C96.9779 69.1367 98 68.1146 98 66.8516C98 65.3275 98 53.73 98 53.1406C98 51.8775 96.9779 50.8555 95.7148 50.8555Z" fill="#23B3A8"/>
<path d="M40.5672 20.9751C28.6959 22.1338 20 32.8064 20 44.734V55.1406C20 61.4507 25.1154 66.5664 31.4258 66.5664H65.7031V43.7149C65.7031 30.3615 54.1881 19.6455 40.5672 20.9751ZM42.8516 57.4258C35.2909 57.4258 29.1406 51.2755 29.1406 43.7149C29.1406 36.1542 35.2909 30.0039 42.8516 30.0039C50.4122 30.0039 56.5625 36.1542 56.5625 43.7149C56.5625 51.2755 50.4122 57.4258 42.8516 57.4258Z" fill="#33EADB"/>
<path d="M42.8516 34.5742C37.8104 34.5742 33.7109 38.6736 33.7109 43.7148C33.7109 48.7561 37.8104 52.8555 42.8516 52.8555C47.8928 52.8555 51.9922 48.7561 51.9922 43.7148C51.9922 38.6736 47.8928 34.5742 42.8516 34.5742Z" fill="#33EADB"/>
<path d="M95.7148 52.8555H70.2734V66.5664H74.8438V64.2812C74.8438 63.0182 75.8658 61.9961 77.1289 61.9961C78.392 61.9961 79.4141 63.0182 79.4141 64.2812V66.5664H84.1367V64.2812C84.1367 63.0182 85.1588 61.9961 86.4219 61.9961C87.685 61.9961 88.707 63.0182 88.707 64.2812V66.5664H93.4297V68.8516C93.4297 70.1146 94.4518 71.1367 95.7148 71.1367C96.9779 71.1367 98 70.1146 98 68.8516C98 67.3275 98 55.73 98 55.1406C98 53.8775 96.9779 52.8555 95.7148 52.8555Z" fill="#33EADB"/>
<defs>
<filter id="filter0_f" x="0" y="-13" width="118" height="118" filterUnits="userSpaceOnUse" color-interpolation-filters="sRGB">
<feFlood flood-opacity="0" result="BackgroundImageFix"/>
<feBlend mode="normal" in="SourceGraphic" in2="BackgroundImageFix" result="shape"/>
<feGaussianBlur stdDeviation="10" result="effect1_foregroundBlur"/>
</filter>
</defs>
</svg>
