<svg width="88" height="94" viewBox="0 0 88 94" fill="none" xmlns="http://www.w3.org/2000/svg">
<g filter="url(#filter0_f)">
<path d="M31.3438 42.1484C28.7266 42.1484 26.5977 44.2774 26.5977 46.8945V59.7617C26.5977 62.3788 28.7266 64.5078 31.3438 64.5078C33.9609 64.5078 36.0898 62.3788 36.0898 59.7617V46.8945C36.0898 44.2774 33.9609 42.1484 31.3438 42.1484Z" fill="#33EADB" fill-opacity="0.8"/>
<path d="M23.4336 46.8945C23.4336 46.4381 23.4938 45.9973 23.5684 45.562C21.6617 46.1783 20.2695 47.9493 20.2695 50.0586V56.5976C20.2695 58.7069 21.6617 60.4779 23.5684 61.0942C23.4938 60.6589 23.4336 60.2181 23.4336 59.7617V46.8945Z" fill="#33EADB" fill-opacity="0.8"/>
<path d="M56.6562 42.1484C54.0391 42.1484 51.9102 44.2774 51.9102 46.8945V59.7617C51.9102 62.3788 54.0391 64.5078 56.6562 64.5078C57.1319 64.5078 57.5825 64.4163 58.016 64.2855C57.427 66.2376 55.6337 67.6719 53.4922 67.6719H48.4547C47.7994 65.8344 46.0598 64.5078 44 64.5078C41.3829 64.5078 39.2539 66.6368 39.2539 69.2539C39.2539 71.871 41.3829 74 44 74C46.0598 74 47.7994 72.6734 48.4547 70.8359H53.4922C57.8536 70.8359 61.4023 67.2872 61.4023 62.9258V59.7617V46.8945C61.4023 44.2774 59.2734 42.1484 56.6562 42.1484Z" fill="#33EADB" fill-opacity="0.8"/>
<path d="M64.4316 45.562C64.5062 45.9973 64.5664 46.4381 64.5664 46.8945V59.7617C64.5664 60.2181 64.5062 60.6589 64.4316 61.0942C66.3383 60.4779 67.7305 58.7069 67.7305 56.5976V50.0586C67.7305 47.9493 66.3383 46.1783 64.4316 45.562Z" fill="#33EADB" fill-opacity="0.8"/>
<path d="M44 20C30.9143 20 20.2695 30.6448 20.2695 43.7305V43.7709C21.2121 43.0573 22.3027 42.5351 23.5061 42.3013C24.2455 31.628 33.1424 23.1641 44 23.1641C54.8576 23.1641 63.7545 31.628 64.4939 42.3012C65.6972 42.535 66.7878 43.0573 67.7305 43.7708V43.7305C67.7305 30.6448 57.0857 20 44 20Z" fill="#33EADB" fill-opacity="0.8"/>
</g>
<path d="M31.3438 40.1484C28.7266 40.1484 26.5977 42.2774 26.5977 44.8945V57.7617C26.5977 60.3788 28.7266 62.5078 31.3438 62.5078C33.9609 62.5078 36.0898 60.3788 36.0898 57.7617V44.8945C36.0898 42.2774 33.9609 40.1484 31.3438 40.1484Z" fill="#23B3A8"/>
<path d="M23.4336 44.8945C23.4336 44.4381 23.4938 43.9973 23.5684 43.562C21.6617 44.1783 20.2695 45.9493 20.2695 48.0586V54.5976C20.2695 56.7069 21.6617 58.4779 23.5684 59.0942C23.4938 58.6589 23.4336 58.2181 23.4336 57.7617V44.8945Z" fill="#23B3A8"/>
<path d="M56.6562 40.1484C54.0391 40.1484 51.9102 42.2774 51.9102 44.8945V57.7617C51.9102 60.3788 54.0391 62.5078 56.6562 62.5078C57.1319 62.5078 57.5825 62.4163 58.016 62.2855C57.427 64.2376 55.6337 65.6719 53.4922 65.6719H48.4547C47.7994 63.8344 46.0598 62.5078 44 62.5078C41.3829 62.5078 39.2539 64.6368 39.2539 67.2539C39.2539 69.871 41.3829 72 44 72C46.0598 72 47.7994 70.6734 48.4547 68.8359H53.4922C57.8536 68.8359 61.4023 65.2872 61.4023 60.9258V57.7617V44.8945C61.4023 42.2774 59.2734 40.1484 56.6562 40.1484Z" fill="#23B3A8"/>
<path d="M64.4316 43.562C64.5062 43.9973 64.5664 44.4381 64.5664 44.8945V57.7617C64.5664 58.2181 64.5062 58.6589 64.4316 59.0942C66.3383 58.4779 67.7305 56.7069 67.7305 54.5976V48.0586C67.7305 45.9493 66.3383 44.1783 64.4316 43.562Z" fill="#23B3A8"/>
<path d="M44 18C30.9143 18 20.2695 28.6448 20.2695 41.7305V41.7709C21.2121 41.0573 22.3027 40.5351 23.5061 40.3013C24.2455 29.628 33.1424 21.1641 44 21.1641C54.8576 21.1641 63.7545 29.628 64.4939 40.3012C65.6972 40.535 66.7878 41.0573 67.7305 41.7708V41.7305C67.7305 28.6448 57.0857 18 44 18Z" fill="#23B3A8"/>
<path d="M31.3438 42.1484C28.7266 42.1484 26.5977 44.2774 26.5977 46.8945V59.7617C26.5977 62.3788 28.7266 64.5078 31.3438 64.5078C33.9609 64.5078 36.0898 62.3788 36.0898 59.7617V46.8945C36.0898 44.2774 33.9609 42.1484 31.3438 42.1484Z" fill="#33EADB"/>
<path d="M23.4336 46.8945C23.4336 46.4381 23.4938 45.9973 23.5684 45.562C21.6617 46.1783 20.2695 47.9493 20.2695 50.0586V56.5976C20.2695 58.7069 21.6617 60.4779 23.5684 61.0942C23.4938 60.6589 23.4336 60.2181 23.4336 59.7617V46.8945Z" fill="#33EADB"/>
<path d="M56.6562 42.1484C54.0391 42.1484 51.9102 44.2774 51.9102 46.8945V59.7617C51.9102 62.3788 54.0391 64.5078 56.6562 64.5078C57.1319 64.5078 57.5825 64.4163 58.016 64.2855C57.427 66.2376 55.6337 67.6719 53.4922 67.6719H48.4547C47.7994 65.8344 46.0598 64.5078 44 64.5078C41.3829 64.5078 39.2539 66.6368 39.2539 69.2539C39.2539 71.871 41.3829 74 44 74C46.0598 74 47.7994 72.6734 48.4547 70.8359H53.4922C57.8536 70.8359 61.4023 67.2872 61.4023 62.9258V59.7617V46.8945C61.4023 44.2774 59.2734 42.1484 56.6562 42.1484Z" fill="#33EADB"/>
<path d="M64.4316 45.562C64.5062 45.9973 64.5664 46.4381 64.5664 46.8945V59.7617C64.5664 60.2181 64.5062 60.6589 64.4316 61.0942C66.3383 60.4779 67.7305 58.7069 67.7305 56.5976V50.0586C67.7305 47.9493 66.3383 46.1783 64.4316 45.562Z" fill="#33EADB"/>
<path d="M44 20C30.9143 20 20.2695 30.6448 20.2695 43.7305V43.7709C21.2121 43.0573 22.3027 42.5351 23.5061 42.3013C24.2455 31.628 33.1424 23.1641 44 23.1641C54.8576 23.1641 63.7545 31.628 64.4939 42.3012C65.6972 42.535 66.7878 43.0573 67.7305 43.7708V43.7305C67.7305 30.6448 57.0857 20 44 20Z" fill="#33EADB"/>
<defs>
<filter id="filter0_f" x="-3" y="0" width="94" height="94" filterUnits="userSpaceOnUse" color-interpolation-filters="sRGB">
<feFlood flood-opacity="0" result="BackgroundImageFix"/>
<feBlend mode="normal" in="SourceGraphic" in2="BackgroundImageFix" result="shape"/>
<feGaussianBlur stdDeviation="10" result="effect1_foregroundBlur"/>
</filter>
</defs>
</svg>
