<svg width="101" height="83" viewBox="0 0 101 83" fill="none" xmlns="http://www.w3.org/2000/svg">
<g filter="url(#filter0_f)">
<path d="M22.1404 48.6288V22.6755C22.1404 21.2333 23.3094 20.0641 24.7517 20.0641H50.6917C52.1338 20.0641 53.3029 21.2333 53.3029 22.6755V48.6289C53.3029 49.1096 52.9133 49.4994 52.4325 49.4994H23.0108C22.53 49.4994 22.1404 49.1096 22.1404 48.6288ZM43.0877 57.5199C43.0877 60.5111 40.6628 62.9359 37.6717 62.9359C34.6806 62.9359 32.2556 60.5111 32.2556 57.5199C32.2556 54.5286 34.6806 52.1038 37.6717 52.1038C40.6628 52.1038 43.0877 54.5286 43.0877 57.5199ZM40.3796 57.5199C40.3796 56.0243 39.1672 54.8118 37.6716 54.8118C36.176 54.8118 34.9634 56.0243 34.9634 57.5199C34.9634 59.0155 36.176 60.228 37.6716 60.228C39.1672 60.228 40.3796 59.0155 40.3796 57.5199ZM33.0069 52.1037H20.8704C20.3897 52.1037 20 52.4934 20 52.9742V55.615C20 56.0957 20.3897 56.4855 20.8704 56.4855H30.5984C30.8523 54.7428 31.7319 53.2034 33.0069 52.1037ZM71.4252 57.5199C71.4252 60.5111 69.0002 62.9359 66.0092 62.9359C63.018 62.9359 60.5931 60.5111 60.5931 57.5199C60.5931 54.5286 63.018 52.1038 66.0092 52.1038C69.0002 52.1037 71.4252 54.5286 71.4252 57.5199ZM68.7173 57.5199C68.7173 56.0243 67.5047 54.8118 66.0092 54.8118C64.5135 54.8118 63.3011 56.0243 63.3011 57.5199C63.3011 59.0155 64.5136 60.228 66.0092 60.228C67.5047 60.228 68.7173 59.0155 68.7173 57.5199ZM81 52.9742V55.615C81 56.0957 80.6103 56.4855 80.1296 56.4855H73.0823C72.5782 53.0285 69.6031 50.3628 66.0093 50.3628C62.4149 50.3628 59.4397 53.0286 58.9356 56.4855H44.745C44.4909 54.7429 43.6114 53.2034 42.3365 52.1037H55.7918V27.2062C55.7918 26.2448 56.5712 25.4653 57.5326 25.4653H65.7502C68.064 25.4653 70.2266 26.6147 71.5213 28.5323L76.8189 36.3787C77.596 37.5296 78.0112 38.8865 78.0112 40.2753V52.1037H80.1296C80.6103 52.1037 81 52.4934 81 52.9742ZM72.1698 36.5796L67.9335 30.56C67.7705 30.3284 67.5049 30.1906 67.2217 30.1906H60.6138C60.1332 30.1906 59.7434 30.5803 59.7434 31.061V37.0806C59.7434 37.5614 60.1331 37.951 60.6138 37.951H71.4581C72.1632 37.951 72.5756 37.1563 72.1698 36.5796Z" fill="#33EADB" fill-opacity="0.8"/>
</g>
<path d="M21.1404 45.6288V19.6755C21.1404 18.2333 22.3094 17.0641 23.7517 17.0641H49.6917C51.1338 17.0641 52.3029 18.2333 52.3029 19.6755V45.6289C52.3029 46.1096 51.9133 46.4994 51.4325 46.4994H22.0108C21.53 46.4994 21.1404 46.1096 21.1404 45.6288ZM42.0877 54.5199C42.0877 57.5111 39.6628 59.9359 36.6717 59.9359C33.6806 59.9359 31.2556 57.5111 31.2556 54.5199C31.2556 51.5286 33.6806 49.1038 36.6717 49.1038C39.6628 49.1038 42.0877 51.5286 42.0877 54.5199ZM39.3796 54.5199C39.3796 53.0243 38.1672 51.8118 36.6716 51.8118C35.176 51.8118 33.9634 53.0243 33.9634 54.5199C33.9634 56.0155 35.176 57.228 36.6716 57.228C38.1672 57.228 39.3796 56.0155 39.3796 54.5199ZM32.0069 49.1037H19.8704C19.3897 49.1037 19 49.4934 19 49.9742V52.615C19 53.0957 19.3897 53.4855 19.8704 53.4855H29.5984C29.8523 51.7428 30.7319 50.2034 32.0069 49.1037ZM70.4252 54.5199C70.4252 57.5111 68.0002 59.9359 65.0092 59.9359C62.018 59.9359 59.5931 57.5111 59.5931 54.5199C59.5931 51.5286 62.018 49.1038 65.0092 49.1038C68.0002 49.1037 70.4252 51.5286 70.4252 54.5199ZM67.7173 54.5199C67.7173 53.0243 66.5047 51.8118 65.0092 51.8118C63.5135 51.8118 62.3011 53.0243 62.3011 54.5199C62.3011 56.0155 63.5136 57.228 65.0092 57.228C66.5047 57.228 67.7173 56.0155 67.7173 54.5199ZM80 49.9742V52.615C80 53.0957 79.6103 53.4855 79.1296 53.4855H72.0823C71.5782 50.0285 68.6031 47.3628 65.0093 47.3628C61.4149 47.3628 58.4397 50.0286 57.9356 53.4855H43.745C43.4909 51.7429 42.6114 50.2034 41.3365 49.1037H54.7918V24.2062C54.7918 23.2448 55.5712 22.4653 56.5326 22.4653H64.7502C67.064 22.4653 69.2266 23.6147 70.5213 25.5323L75.8189 33.3787C76.596 34.5296 77.0112 35.8865 77.0112 37.2753V49.1037H79.1296C79.6103 49.1037 80 49.4934 80 49.9742ZM71.1698 33.5796L66.9335 27.56C66.7705 27.3284 66.5049 27.1906 66.2217 27.1906H59.6138C59.1332 27.1906 58.7434 27.5803 58.7434 28.061V34.0806C58.7434 34.5614 59.1331 34.951 59.6138 34.951H70.4581C71.1632 34.951 71.5756 34.1563 71.1698 33.5796Z" fill="#23B3A8"/>
<path d="M21.1404 48.6288V22.6755C21.1404 21.2333 22.3094 20.0641 23.7517 20.0641H49.6917C51.1338 20.0641 52.3029 21.2333 52.3029 22.6755V48.6289C52.3029 49.1096 51.9133 49.4994 51.4325 49.4994H22.0108C21.53 49.4994 21.1404 49.1096 21.1404 48.6288ZM42.0877 57.5199C42.0877 60.5111 39.6628 62.9359 36.6717 62.9359C33.6806 62.9359 31.2556 60.5111 31.2556 57.5199C31.2556 54.5286 33.6806 52.1038 36.6717 52.1038C39.6628 52.1038 42.0877 54.5286 42.0877 57.5199ZM39.3796 57.5199C39.3796 56.0243 38.1672 54.8118 36.6716 54.8118C35.176 54.8118 33.9634 56.0243 33.9634 57.5199C33.9634 59.0155 35.176 60.228 36.6716 60.228C38.1672 60.228 39.3796 59.0155 39.3796 57.5199ZM32.0069 52.1037H19.8704C19.3897 52.1037 19 52.4934 19 52.9742V55.615C19 56.0957 19.3897 56.4855 19.8704 56.4855H29.5984C29.8523 54.7428 30.7319 53.2034 32.0069 52.1037ZM70.4252 57.5199C70.4252 60.5111 68.0002 62.9359 65.0092 62.9359C62.018 62.9359 59.5931 60.5111 59.5931 57.5199C59.5931 54.5286 62.018 52.1038 65.0092 52.1038C68.0002 52.1037 70.4252 54.5286 70.4252 57.5199ZM67.7173 57.5199C67.7173 56.0243 66.5047 54.8118 65.0092 54.8118C63.5135 54.8118 62.3011 56.0243 62.3011 57.5199C62.3011 59.0155 63.5136 60.228 65.0092 60.228C66.5047 60.228 67.7173 59.0155 67.7173 57.5199ZM80 52.9742V55.615C80 56.0957 79.6103 56.4855 79.1296 56.4855H72.0823C71.5782 53.0285 68.6031 50.3628 65.0093 50.3628C61.4149 50.3628 58.4397 53.0286 57.9356 56.4855H43.745C43.4909 54.7429 42.6114 53.2034 41.3365 52.1037H54.7918V27.2062C54.7918 26.2448 55.5712 25.4653 56.5326 25.4653H64.7502C67.064 25.4653 69.2266 26.6147 70.5213 28.5323L75.8189 36.3787C76.596 37.5296 77.0112 38.8865 77.0112 40.2753V52.1037H79.1296C79.6103 52.1037 80 52.4934 80 52.9742ZM71.1698 36.5796L66.9335 30.56C66.7705 30.3284 66.5049 30.1906 66.2217 30.1906H59.6138C59.1332 30.1906 58.7434 30.5803 58.7434 31.061V37.0806C58.7434 37.5614 59.1331 37.951 59.6138 37.951H70.4581C71.1632 37.951 71.5756 37.1563 71.1698 36.5796Z" fill="#33EADB"/>
<defs>
<filter id="filter0_f" x="0" y="-9" width="101" height="101" filterUnits="userSpaceOnUse" color-interpolation-filters="sRGB">
<feFlood flood-opacity="0" result="BackgroundImageFix"/>
<feBlend mode="normal" in="SourceGraphic" in2="BackgroundImageFix" result="shape"/>
<feGaussianBlur stdDeviation="10" result="effect1_foregroundBlur"/>
</filter>
</defs>
</svg>
