<svg width="79" height="71" viewBox="0 0 79 71" fill="none" xmlns="http://www.w3.org/2000/svg">
<g filter="url(#filter0_f)">
<path d="M52.1429 39.612V27.4741L35.2857 39.612V27.4741H31.0714V17.5616H26.8571V27.4741H22.6429V10.4813H14.2143V27.4741H10V60.0438H69V27.4741L52.1429 39.612ZM32.4762 52.9634H26.8571V47.2991H32.4762V52.9634ZM42.3095 52.9634H36.6905V47.2991H42.3095V52.9634ZM52.1429 52.9634H46.5238V47.2991H52.1429V52.9634Z" fill="#33EADB" fill-opacity="0.8"/>
</g>
<path d="M52.1429 38.087V25.9491L35.2857 38.087V25.9491H31.0714V16.0366H26.8571V25.9491H22.6429V8.95624H14.2143V25.9491H10V58.5187H69V25.9491L52.1429 38.087ZM32.4762 51.4384H26.8571V45.7741H32.4762V51.4384ZM42.3095 51.4384H36.6905V45.7741H42.3095V51.4384ZM52.1429 51.4384H46.5238V45.7741H52.1429V51.4384Z" fill="#23B3A8"/>
<path d="M52.1429 39.612V27.4741L35.2857 39.612V27.4741H31.0714V17.5616H26.8571V27.4741H22.6429V10.4813H14.2143V27.4741H10V60.0438H69V27.4741L52.1429 39.612ZM32.4762 52.9634H26.8571V47.2991H32.4762V52.9634ZM42.3095 52.9634H36.6905V47.2991H42.3095V52.9634ZM52.1429 52.9634H46.5238V47.2991H52.1429V52.9634Z" fill="#33EADB"/>
<defs>
<filter id="filter0_f" x="0" y="-4.47498" width="79" height="79.475" filterUnits="userSpaceOnUse" color-interpolation-filters="sRGB">
<feFlood flood-opacity="0" result="BackgroundImageFix"/>
<feBlend mode="normal" in="SourceGraphic" in2="BackgroundImageFix" result="shape"/>
<feGaussianBlur stdDeviation="5" result="effect1_foregroundBlur"/>
</filter>
</defs>
</svg>
